<?xml version="1.0" encoding="UTF-8" standalone="no"?>
<!-- Created with Inkscape (http://www.inkscape.org/) -->

<svg
   version="1.1"
   id="svg1"
   width="181.28267"
   height="20.535999"
   viewBox="0 0 181.28267 20.535999"
   sodipodi:docname="upload_hjfsahlptbll67d333l22z2hsp.pdf"
   xmlns:inkscape="http://www.inkscape.org/namespaces/inkscape"
   xmlns:sodipodi="http://sodipodi.sourceforge.net/DTD/sodipodi-0.dtd"
   xmlns="http://www.w3.org/2000/svg"
   xmlns:svg="http://www.w3.org/2000/svg">
  <defs
     id="defs1">
    <clipPath
       clipPathUnits="userSpaceOnUse"
       id="clipPath8">
      <path
         d="M 0,-4.2895 H 3.86052 V 4.28951 H 0 Z"
         transform="matrix(1,0,0,-1,6.1000004,-2.491)"
         id="path8" />
    </clipPath>
    <clipPath
       clipPathUnits="userSpaceOnUse"
       id="clipPath10">
      <path
         d="M 0,-4.2895 H 3.86052 V 4.28951 H 0 Z"
         transform="matrix(1,0,0,-1,6.0999999,-2.4909998)"
         id="path10" />
    </clipPath>
    <clipPath
       clipPathUnits="userSpaceOnUse"
       id="clipPath13">
      <path
         d="M 0,-4.2895 H 3.86052 V 4.28951 H 0 Z"
         transform="matrix(1,0,0,-1,6.1000004,-2.4909998)"
         id="path13" />
    </clipPath>
    <clipPath
       clipPathUnits="userSpaceOnUse"
       id="clipPath15">
      <path
         d="M 0,-4.2895 H 3.86052 V 4.28951 H 0 Z"
         transform="matrix(1,0,0,-1,6.0999999,-2.4909998)"
         id="path15" />
    </clipPath>
    <clipPath
       clipPathUnits="userSpaceOnUse"
       id="clipPath18">
      <path
         d="M 0,-4.2895 H 3.86052 V 4.28951 H 0 Z"
         transform="matrix(1,0,0,-1,6.1000027,-2.491)"
         id="path18" />
    </clipPath>
    <clipPath
       clipPathUnits="userSpaceOnUse"
       id="clipPath20">
      <path
         d="M 0,-4.2895 H 3.86052 V 4.28951 H 0 Z"
         transform="matrix(1,0,0,-1,6.1000002,-2.4909998)"
         id="path20" />
    </clipPath>
    <clipPath
       clipPathUnits="userSpaceOnUse"
       id="clipPath23">
      <path
         d="M 0,-4.2895 H 3.86052 V 4.28951 H 0 Z"
         transform="matrix(1,0,0,-1,6.1000027,-2.4909998)"
         id="path23" />
    </clipPath>
    <clipPath
       clipPathUnits="userSpaceOnUse"
       id="clipPath25">
      <path
         d="M 0,-4.2895 H 3.86052 V 4.28951 H 0 Z"
         transform="matrix(1,0,0,-1,6.1000002,-2.4909998)"
         id="path25" />
    </clipPath>
  </defs>
  <sodipodi:namedview
     id="namedview1"
     pagecolor="#ffffff"
     bordercolor="#000000"
     borderopacity="0.25"
     inkscape:showpageshadow="2"
     inkscape:pageopacity="0.0"
     inkscape:pagecheckerboard="0"
     inkscape:deskcolor="#d1d1d1">
    <inkscape:page
       x="0"
       y="0"
       inkscape:label="1"
       id="page1"
       width="181.28267"
       height="20.535999"
       margin="0"
       bleed="0" />
  </sodipodi:namedview>
  <g
     id="g1"
     inkscape:groupmode="layer"
     inkscape:label="1">
    <path
       id="path1"
       d="m 6.539125,-6.6788516 c 0,-0.1757812 0,-0.328125 -0.1640625,-0.328125 -0.011719,0 -0.1640625,0 -0.1757813,0.1757813 -0.035156,0.28125 -0.2578125,0.28125 -0.328125,0.28125 -0.3515625,0 -0.703125,-0.1523438 -0.9023437,-0.2460938 -0.5039063,-0.2109375 -0.9375,-0.2109375 -1.0898437,-0.2109375 -1.6640625,0 -3.51562505,1.0429688 -3.51562505,3.5859375 0,2.54296879 1.80468755,3.60937504 3.52734375,3.60937504 0.5273437,0 1.2421875,-0.10546875 1.96875,-0.55078125 0.4570312,-0.28125 0.9609375,-0.78515629 0.9609375,-0.92578129 0,-0.140625 -0.140625,-0.1992187 -0.2109375,-0.1992187 -0.070312,0 -0.1054688,0.035156 -0.1992188,0.140625 -0.5859375,0.65624999 -1.4648437,1.05468749 -2.3554687,1.05468749 -1.546875,0 -1.9335937,-1.55859379 -1.9335937,-3.10546879 0,-1.9570312 0.7148437,-3.2695312 1.78125,-3.2695312 0.7499999,0 1.9453124,0.7265625 2.2851562,1.78125 0.023437,0.09375 0.058594,0.1992187 0.1875,0.1992187 0.1640625,0 0.1640625,-0.1640625 0.1640625,-0.328125 z M 6.1992812,-5.6593203 C 6.0820937,-5.8233828 5.9414687,-5.9522891 5.695375,-6.2101016 c 0.046875,0 0.1289062,0 0.1875,0 0.1054687,0 0.234375,-0.011719 0.3164062,-0.070312 z M 2.6602188,-6.4327578 c -0.234375,0.2226562 -0.890625,1.0898437 -0.890625,3.0351562 0,0.984375 0.1523437,2.3671875 1.0546875,3.08203129 -1.640625,-0.52734375 -2.10937505,-1.87499999 -2.10937505,-3.09374999 0,-1.828125 1.00781255,-2.71875 1.94531255,-3.0351563 z m 0,0"
       style="fill:#ffffff;fill-opacity:1;fill-rule:nonzero;stroke:none"
       aria-label="C"
       transform="matrix(1.3333333,0,0,1.3333333,5.7186667,15.674667)" />
    <g
       id="g2"
       aria-label="C&#10;2"
       transform="matrix(1.3333333,0,0,1.3333333,79.885333,15.674667)">
      <path
         id="path2"
         d="m 6.5401016,-6.6788516 c 0,-0.1757812 0,-0.328125 -0.1640625,-0.328125 -0.011719,0 -0.1640625,0 -0.1757813,0.1757813 -0.035156,0.28125 -0.2578125,0.28125 -0.328125,0.28125 -0.3515625,0 -0.703125,-0.1523438 -0.9023437,-0.2460938 -0.5039063,-0.2109375 -0.9375,-0.2109375 -1.0898438,-0.2109375 -1.6640625,0 -3.51562499,1.0429688 -3.51562499,3.5859375 0,2.54296879 1.80468749,3.60937504 3.52734379,3.60937504 0.5273437,0 1.2421875,-0.10546875 1.96875,-0.55078125 0.4570312,-0.28125 0.9609375,-0.78515629 0.9609375,-0.92578129 0,-0.140625 -0.140625,-0.1992187 -0.2109375,-0.1992187 -0.070312,0 -0.1054688,0.035156 -0.1992188,0.140625 -0.5859375,0.65624999 -1.4648437,1.05468749 -2.3554687,1.05468749 -1.546875,0 -1.9335938,-1.55859379 -1.9335938,-3.10546879 0,-1.9570312 0.7148438,-3.2695312 1.78125,-3.2695312 0.75,0 1.9453125,0.7265625 2.2851563,1.78125 0.023437,0.09375 0.058594,0.1992187 0.1875,0.1992187 0.1640625,0 0.1640625,-0.1640625 0.1640625,-0.328125 z M 6.2002578,-5.6593203 C 6.0830703,-5.8233828 5.9424453,-5.9522891 5.6963516,-6.2101016 c 0.046875,0 0.1289062,0 0.1875,0 0.1054687,0 0.234375,-0.011719 0.3164062,-0.070312 z M 2.6611953,-6.4327578 c -0.234375,0.2226562 -0.890625,1.0898437 -0.890625,3.0351562 0,0.984375 0.1523438,2.3671875 1.0546875,3.08203129 -1.640625,-0.52734375 -2.10937499,-1.87499999 -2.10937499,-3.09374999 0,-1.828125 1.00781249,-2.71875 1.94531249,-3.0351563 z m 0,0"
         style="fill:#ffffff;fill-opacity:1;fill-rule:nonzero;stroke:none" />
      <path
         id="path3"
         d="m 10.711977,-4.8800234 h -0.234375 c -0.02344,0.1523437 -0.08203,0.5625 -0.175782,0.6328125 -0.05859,0.035156 -0.5976559,0.035156 -0.6914059,0.035156 H 8.3213516 c 0.7382812,-0.6445312 0.984375,-0.84375 1.3945312,-1.171875 0.5156252,-0.4101562 0.9960942,-0.84375 0.9960942,-1.5 0,-0.84375 -0.7382817,-1.359375 -1.6289067,-1.359375 -0.8671875,0 -1.453125,0.609375 -1.453125,1.2421875 0,0.3632813 0.3046875,0.3984375 0.375,0.3984375 0.1640625,0 0.375,-0.1171875 0.375,-0.375 0,-0.1289062 -0.058594,-0.3632812 -0.421875,-0.3632812 0.2226563,-0.5039063 0.6914063,-0.65625 1.0195313,-0.65625 0.703125,0 1.0664064,0.5507812 1.0664064,1.1132812 0,0.609375 -0.4335939,1.0898438 -0.6562502,1.3359375 l -1.6875,1.6640625 c -0.070312,0.058594 -0.070312,0.070312 -0.070312,0.2695313 h 2.8828122 z m 0,0"
         style="fill:#ffffff;fill-opacity:1;fill-rule:nonzero;stroke:none" />
    </g>
    <g
       id="g3"
       aria-label="C&#10;3"
       transform="matrix(1.3333333,0,0,1.3333333,160.01067,15.674667)">
      <path
         id="path4"
         d="m 6.5398516,-6.6788516 c 0,-0.1757812 0,-0.328125 -0.1640625,-0.328125 -0.011719,0 -0.1640625,0 -0.1757813,0.1757813 -0.035156,0.28125 -0.2578125,0.28125 -0.328125,0.28125 -0.3515625,0 -0.703125,-0.1523438 -0.9023437,-0.2460938 -0.5039063,-0.2109375 -0.9375,-0.2109375 -1.0898438,-0.2109375 -1.6640625,0 -3.51562499,1.0429688 -3.51562499,3.5859375 0,2.54296879 1.80468749,3.60937504 3.52734379,3.60937504 0.5273437,0 1.2421875,-0.10546875 1.96875,-0.55078125 0.4570312,-0.28125 0.9609375,-0.78515629 0.9609375,-0.92578129 0,-0.140625 -0.140625,-0.1992187 -0.2109375,-0.1992187 -0.070312,0 -0.1054688,0.035156 -0.1992188,0.140625 -0.5859375,0.65624999 -1.4648437,1.05468749 -2.3554687,1.05468749 -1.546875,0 -1.9335938,-1.55859379 -1.9335938,-3.10546879 0,-1.9570312 0.7148438,-3.2695312 1.78125,-3.2695312 0.75,0 1.9453125,0.7265625 2.2851563,1.78125 0.023437,0.09375 0.058594,0.1992187 0.1875,0.1992187 0.1640625,0 0.1640625,-0.1640625 0.1640625,-0.328125 z M 6.2000078,-5.6593203 C 6.0828203,-5.8233828 5.9421953,-5.9522891 5.6961016,-6.2101016 c 0.046875,0 0.1289062,0 0.1875,0 0.1054687,0 0.234375,-0.011719 0.3164062,-0.070312 z M 2.6609453,-6.4327578 c -0.234375,0.2226562 -0.890625,1.0898437 -0.890625,3.0351562 0,0.984375 0.1523438,2.3671875 1.0546875,3.08203129 -1.640625,-0.52734375 -2.10937499,-1.87499999 -2.10937499,-3.09374999 0,-1.828125 1.00781249,-2.71875 1.94531249,-3.0351563 z m 0,0"
         style="fill:#ffffff;fill-opacity:1;fill-rule:nonzero;stroke:none" />
      <path
         id="path5"
         d="m 9.0945391,-5.9464297 c 0.5507812,0 0.9374999,0.375 0.9374999,1.125 0,0.8671875 -0.5039062,1.125 -0.9023437,1.125 -0.28125,0 -0.890625,-0.082031 -1.1835937,-0.4921875 0.328125,-0.011719 0.3984375,-0.2460937 0.3984375,-0.3867187 0,-0.2226563 -0.1640625,-0.3867188 -0.3867188,-0.3867188 -0.1875,0 -0.3867187,0.1171875 -0.3867187,0.4101563 0,0.65625 0.7265625,1.078125 1.5703125,1.078125 0.9726559,0 1.6406249,-0.6445313 1.6406249,-1.3476563 0,-0.5390625 -0.445312,-1.0898437 -1.2187499,-1.2421875 0.7382809,-0.2695312 0.9960939,-0.796875 0.9960939,-1.21875 0,-0.5507812 -0.6328127,-0.9609375 -1.4062502,-0.9609375 -0.7734375,0 -1.359375,0.375 -1.359375,0.9375 0,0.234375 0.1523438,0.3632813 0.3632813,0.3632813 0.2109375,0 0.3515625,-0.1640625 0.3515625,-0.3515625 0,-0.1992188 -0.140625,-0.3515625 -0.3515625,-0.3632813 0.234375,-0.3046875 0.7148437,-0.3867187 0.9726562,-0.3867187 0.3164063,0 0.7617188,0.1523437 0.7617188,0.7617187 0,0.2929688 -0.1054688,0.609375 -0.28125,0.8320313 -0.234375,0.2578125 -0.421875,0.28125 -0.7734375,0.2929687 -0.1757813,0.023437 -0.1875,0.023437 -0.2226563,0.023437 -0.011719,0 -0.070312,0.011719 -0.070312,0.09375 0,0.09375 0.058594,0.09375 0.1757813,0.09375 z m 0,0"
         style="fill:#ffffff;fill-opacity:1;fill-rule:nonzero;stroke:none" />
    </g>
    <path
       id="path6"
       d="m -48.5769,1.4247 h 32.5895"
       style="fill:none;stroke:#ffffff;stroke-width:0.39848;stroke-linecap:butt;stroke-linejoin:miter;stroke-miterlimit:10;stroke-dasharray:none;stroke-opacity:1"
       transform="matrix(1.3333333,0,0,-1.3333333,90.641333,10.268)" />
    <path
       id="path7"
       d="m 2.0285141,-2.2967312 h 7.171875 c 0.1054687,0 0.1992187,-0.011719 0.1992187,-0.1289063 0,-0.082031 0.023437,-0.2109375 -0.058594,-0.2578125 C 9.2941388,-2.706887 9.235545,-2.695169 9.18867,-2.695169 H 2.0285141 c 0.1523437,-0.1757813 0.3046875,-0.3398438 0.4570312,-0.5273438 0.070312,-0.09375 0.140625,-0.1875 0.2226563,-0.28125 0.058594,-0.082031 0.1289062,-0.1757812 0.1875,-0.2460937 0.035156,-0.046875 0.070312,-0.09375 0.082031,-0.140625 0.035156,-0.140625 -0.1523437,-0.1289063 -0.234375,-0.1289063 -0.046875,0 -0.070312,0 -0.1054687,0.011719 -0.058594,0.046875 -0.1171875,0.1054687 -0.1640625,0.1523437 -0.1054688,0.082031 -0.1992188,0.1640625 -0.3046875,0.2460938 -0.3046875,0.2578125 -0.6328125,0.4921875 -0.984375,0.6914062 -0.1523438,0.09375 -0.31640629,0.1875 -0.48046879,0.2695313 -0.0585938,0.023437 -0.140625,0.070312 -0.140625,0.1523437 0,0.070312 0.0820313,0.1171875 0.140625,0.140625 0.1640625,0.082031 0.32812499,0.1757813 0.48046879,0.2695313 0.3515625,0.1992187 0.6796875,0.4453125 0.984375,0.6914062 0.1054687,0.082031 0.1992187,0.1640625 0.3046875,0.2460938 0.046875,0.046875 0.1054687,0.1171875 0.1640625,0.1523437 0.035156,0.0234375 0.058594,0.0234375 0.1054687,0.0234375 0.082031,0 0.2695313,0.0117188 0.234375,-0.1289062 -0.011719,-0.058594 -0.046875,-0.1054688 -0.082031,-0.140625 -0.058594,-0.082031 -0.1289063,-0.1757813 -0.1875,-0.2578125 -0.082031,-0.09375 -0.1523438,-0.1875 -0.2226563,-0.28125 C 2.3332016,-1.9568876 2.1808578,-2.1326688 2.0285141,-2.2967312 Z m 0,0"
       style="fill:#ffffff;fill-opacity:1;fill-rule:nonzero;stroke:none"
       aria-label="Ð"
       transform="matrix(-1.3333333,0,0,-1.3333333,34.005467,5.0470667)"
       clip-path="url(#clipPath8)" />
    <path
       id="path9"
       d="M 7.9335484,-2.6940578 H 0.77339219 c -0.046875,0 -0.10546875,-0.011719 -0.15234375,0.011719 -0.0820313,0.046875 -0.0585938,0.1757813 -0.0585938,0.2578125 0,0.1171875 0.09375,0.1289063 0.19921875,0.1289063 H 7.9335484 c -0.1523437,0.1640625 -0.3046875,0.3398437 -0.4570312,0.515625 -0.070312,0.09375 -0.140625,0.1875 -0.2226563,0.28125 -0.058594,0.082031 -0.1289062,0.1757812 -0.1875,0.2578125 -0.035156,0.035156 -0.070312,0.082031 -0.082031,0.140625 -0.035156,0.14062499 0.1523437,0.12890624 0.234375,0.12890624 0.046875,0 0.070312,0 0.1054687,-0.0234375 0.058594,-0.0351562 0.1171875,-0.10546874 0.1640625,-0.15234374 0.1054688,-0.082031 0.1992188,-0.1640625 0.3046875,-0.2460938 0.3046875,-0.2460937 0.6328125,-0.4921875 0.984375,-0.6914062 0.1523438,-0.09375 0.3164063,-0.1875 0.4804688,-0.2695313 0.058594,-0.023437 0.140625,-0.070312 0.140625,-0.140625 0,-0.082031 -0.09375,-0.1289062 -0.1523438,-0.1523437 C 9.0819859,-2.7292141 8.9296422,-2.8229641 8.7772984,-2.9167141 8.4257359,-3.1159328 8.0976109,-3.3503078 7.7929234,-3.6081203 7.6874547,-3.6901516 7.5937047,-3.7721828 7.4882359,-3.8542141 7.4413609,-3.9010891 7.3827672,-3.9596828 7.3241734,-4.0065578 c -0.035156,-0.011719 -0.058594,-0.011719 -0.1054687,-0.011719 -0.082031,0 -0.2695313,-0.011719 -0.234375,0.1289063 0.011719,0.046875 0.046875,0.09375 0.082031,0.140625 0.058594,0.070312 0.1289063,0.1640625 0.1875,0.2460937 0.082031,0.09375 0.1523438,0.1875 0.2226563,0.28125 0.1523437,0.1875 0.3046875,0.3515625 0.4570314,0.527344 z m 0,0"
       style="fill:#ffffff;fill-opacity:1;fill-rule:nonzero;stroke:none"
       aria-label="Ñ"
       transform="matrix(1.3333333,0,0,1.3333333,61.191467,11.689733)"
       clip-path="url(#clipPath10)" />
    <path
       id="path11"
       d="m -48.5769,-4.55301 h 32.5895"
       style="fill:none;stroke:#ffffff;stroke-width:0.39848;stroke-linecap:butt;stroke-linejoin:miter;stroke-miterlimit:10;stroke-dasharray:none;stroke-opacity:1"
       transform="matrix(1.3333333,0,0,-1.3333333,90.641333,10.268)" />
    <path
       id="path12"
       d="m 2.0285141,-2.2955837 h 7.171875 c 0.1054687,0 0.1992187,-0.011719 0.1992187,-0.1289063 0,-0.082031 0.023437,-0.2109375 -0.058594,-0.2578125 C 9.2941388,-2.7057395 9.235545,-2.6940215 9.18867,-2.6940215 H 2.0285141 c 0.1523437,-0.1757813 0.3046875,-0.3398438 0.4570312,-0.5273438 0.070312,-0.09375 0.140625,-0.1875 0.2226563,-0.28125 0.058594,-0.082031 0.1289062,-0.1757812 0.1875,-0.2460937 0.035156,-0.046875 0.070312,-0.09375 0.082031,-0.140625 0.035156,-0.140625 -0.1523437,-0.1289063 -0.234375,-0.1289063 -0.046875,0 -0.070312,0 -0.1054687,0.011719 -0.058594,0.046875 -0.1171875,0.1054687 -0.1640625,0.1523437 -0.1054688,0.082031 -0.1992188,0.1640625 -0.3046875,0.2460938 -0.3046875,0.2578125 -0.6328125,0.4921875 -0.984375,0.6914062 -0.1523438,0.09375 -0.31640629,0.1875 -0.48046879,0.2695313 -0.0585938,0.023437 -0.140625,0.070312 -0.140625,0.1523437 0,0.070312 0.0820313,0.1171875 0.140625,0.140625 0.1640625,0.082031 0.32812499,0.1757813 0.48046879,0.2695313 0.3515625,0.1992187 0.6796875,0.4453125 0.984375,0.6914062 0.1054687,0.082031 0.1992187,0.1640625 0.3046875,0.2460938 0.046875,0.046875 0.1054687,0.1171875 0.1640625,0.1523437 0.035156,0.0234375 0.058594,0.0234375 0.1054687,0.0234375 0.082031,0 0.2695313,0.0117188 0.234375,-0.1289062 -0.011719,-0.058594 -0.046875,-0.1054688 -0.082031,-0.140625 -0.058594,-0.082031 -0.1289063,-0.1757813 -0.1875,-0.2578125 -0.082031,-0.09375 -0.1523438,-0.1875 -0.2226563,-0.28125 C 2.3332016,-1.95574 2.1808578,-2.1315212 2.0285141,-2.2955837 Z m 0,0"
       style="fill:#ffffff;fill-opacity:1;fill-rule:nonzero;stroke:none"
       aria-label="Ð"
       transform="matrix(-1.3333333,0,0,-1.3333333,34.005467,13.017347)"
       clip-path="url(#clipPath13)" />
    <path
       id="path14"
       d="M 7.9335484,-2.6952053 H 0.77339219 c -0.046875,0 -0.10546875,-0.011719 -0.15234375,0.011719 -0.0820313,0.046875 -0.0585938,0.1757813 -0.0585938,0.2578125 0,0.1171875 0.09375,0.1289063 0.19921875,0.1289063 H 7.9335484 c -0.1523437,0.1640625 -0.3046875,0.3398437 -0.4570312,0.515625 -0.070312,0.09375 -0.140625,0.1875 -0.2226563,0.28125 -0.058594,0.082031 -0.1289062,0.1757812 -0.1875,0.2578125 -0.035156,0.035156 -0.070312,0.082031 -0.082031,0.140625 -0.035156,0.14062499 0.1523437,0.12890624 0.234375,0.12890624 0.046875,0 0.070312,0 0.1054687,-0.0234375 C 7.3827676,-1.0311425 7.4413611,-1.101455 7.4882361,-1.14833 7.5937049,-1.230361 7.6874549,-1.3123925 7.7929236,-1.3944238 8.0976111,-1.6405175 8.4257361,-1.8866113 8.7772986,-2.08583 c 0.1523438,-0.09375 0.3164063,-0.1875 0.4804688,-0.2695313 0.058594,-0.023437 0.140625,-0.070312 0.140625,-0.140625 0,-0.082031 -0.09375,-0.1289062 -0.1523438,-0.1523437 C 9.0819859,-2.7303616 8.9296422,-2.8241116 8.7772984,-2.9178616 8.4257359,-3.1170803 8.0976109,-3.3514553 7.7929234,-3.6092678 7.6874547,-3.6912991 7.5937047,-3.7733303 7.4882359,-3.8553616 7.4413609,-3.9022366 7.3827672,-3.9608303 7.3241734,-4.0077053 c -0.035156,-0.011719 -0.058594,-0.011719 -0.1054687,-0.011719 -0.082031,0 -0.2695313,-0.011719 -0.234375,0.1289063 0.011719,0.046875 0.046875,0.09375 0.082031,0.140625 0.058594,0.070312 0.1289063,0.1640625 0.1875,0.2460937 0.082031,0.09375 0.1523438,0.1875 0.2226563,0.28125 0.1523437,0.1875 0.3046875,0.3515625 0.4570314,0.527344 z m 0,0"
       style="fill:#ffffff;fill-opacity:1;fill-rule:nonzero;stroke:none"
       aria-label="Ñ"
       transform="matrix(1.3333333,0,0,1.3333333,61.191467,19.660013)"
       clip-path="url(#clipPath15)" />
    <path
       id="path16"
       d="M 11.51799,1.4247 H 44.1075"
       style="fill:none;stroke:#ffffff;stroke-width:0.39848;stroke-linecap:butt;stroke-linejoin:miter;stroke-miterlimit:10;stroke-dasharray:none;stroke-opacity:1"
       transform="matrix(1.3333333,0,0,-1.3333333,90.641333,10.268)" />
    <path
       id="path17"
       d="m 2.0267244,-2.2967312 h 7.171875 c 0.1054687,0 0.1992187,-0.011719 0.1992187,-0.1289063 0,-0.082031 0.023437,-0.2109375 -0.058594,-0.2578125 C 9.2923491,-2.706887 9.2337553,-2.695169 9.1868803,-2.695169 H 2.0267244 c 0.1523437,-0.1757813 0.3046875,-0.3398438 0.4570312,-0.5273438 0.070312,-0.09375 0.140625,-0.1875 0.2226563,-0.28125 0.058594,-0.082031 0.1289062,-0.1757812 0.1875,-0.2460937 0.035156,-0.046875 0.070312,-0.09375 0.082031,-0.140625 0.035156,-0.140625 -0.1523437,-0.1289063 -0.234375,-0.1289063 -0.046875,0 -0.070312,0 -0.1054687,0.011719 -0.058594,0.046875 -0.1171875,0.1054687 -0.1640625,0.1523437 -0.1054688,0.082031 -0.1992188,0.1640625 -0.3046875,0.2460938 -0.3046875,0.2578125 -0.6328125,0.4921875 -0.984375,0.6914062 -0.1523438,0.09375 -0.31640627,0.1875 -0.48046877,0.2695313 -0.0585938,0.023437 -0.140625,0.070312 -0.140625,0.1523437 0,0.070312 0.0820313,0.1171875 0.140625,0.140625 0.1640625,0.082031 0.32812497,0.1757813 0.48046877,0.2695313 0.3515625,0.1992187 0.6796875,0.4453125 0.984375,0.6914062 0.1054687,0.082031 0.1992187,0.1640625 0.3046875,0.2460938 0.046875,0.046875 0.1054687,0.1171875 0.1640625,0.1523437 0.035156,0.0234375 0.058594,0.0234375 0.1054687,0.0234375 0.082031,0 0.2695313,0.0117188 0.234375,-0.1289062 -0.011719,-0.058594 -0.046875,-0.1054688 -0.082031,-0.140625 -0.058594,-0.082031 -0.1289063,-0.1757813 -0.1875,-0.2578125 -0.082031,-0.09375 -0.1523438,-0.1875 -0.2226563,-0.28125 C 2.3314119,-1.9568876 2.1790681,-2.1326688 2.0267244,-2.2967312 Z m 0,0"
       style="fill:#ffffff;fill-opacity:1;fill-rule:nonzero;stroke:none"
       aria-label="Ð"
       transform="matrix(-1.3333333,0,0,-1.3333333,114.13199,5.0470667)"
       clip-path="url(#clipPath18)" />
    <path
       id="path19"
       d="M 7.9323984,-2.6940578 H 0.77224219 c -0.046875,0 -0.10546875,-0.011719 -0.15234375,0.011719 -0.0820313,0.046875 -0.0585938,0.1757813 -0.0585938,0.2578125 0,0.1171875 0.09375,0.1289063 0.19921875,0.1289063 H 7.9323984 c -0.1523437,0.1640625 -0.3046875,0.3398437 -0.4570312,0.515625 -0.070312,0.09375 -0.140625,0.1875 -0.2226563,0.28125 -0.058594,0.082031 -0.1289062,0.1757812 -0.1875,0.2578125 -0.035156,0.035156 -0.070312,0.082031 -0.082031,0.140625 -0.035156,0.14062499 0.1523437,0.12890624 0.234375,0.12890624 0.046875,0 0.070312,0 0.1054687,-0.0234375 0.058594,-0.0351562 0.1171875,-0.10546874 0.1640625,-0.15234374 0.1054688,-0.082031 0.1992188,-0.1640625 0.3046875,-0.2460938 0.3046875,-0.2460937 0.6328125,-0.4921875 0.984375,-0.6914062 0.1523438,-0.09375 0.3164063,-0.1875 0.4804688,-0.2695313 0.058594,-0.023437 0.140625,-0.070312 0.140625,-0.140625 0,-0.082031 -0.09375,-0.1289062 -0.1523438,-0.1523437 C 9.0808359,-2.7292141 8.9284922,-2.8229641 8.7761484,-2.9167141 8.4245859,-3.1159328 8.0964609,-3.3503078 7.7917734,-3.6081203 7.6863047,-3.6901516 7.5925547,-3.7721828 7.4870859,-3.8542141 7.4402109,-3.9010891 7.3816172,-3.9596828 7.3230234,-4.0065578 c -0.035156,-0.011719 -0.058594,-0.011719 -0.1054687,-0.011719 -0.082031,0 -0.2695313,-0.011719 -0.234375,0.1289063 0.011719,0.046875 0.046875,0.09375 0.082031,0.140625 0.058594,0.070312 0.1289063,0.1640625 0.1875,0.2460937 0.082031,0.09375 0.1523438,0.1875 0.2226563,0.28125 0.1523437,0.1875 0.3046875,0.3515625 0.4570314,0.527344 z m 0,0"
       style="fill:#ffffff;fill-opacity:1;fill-rule:nonzero;stroke:none"
       aria-label="Ñ"
       transform="matrix(1.3333333,0,0,1.3333333,141.318,11.689733)"
       clip-path="url(#clipPath20)" />
    <path
       id="path21"
       d="M 11.51799,-4.55301 H 44.1075"
       style="fill:none;stroke:#ffffff;stroke-width:0.39848;stroke-linecap:butt;stroke-linejoin:miter;stroke-miterlimit:10;stroke-dasharray:none;stroke-opacity:1"
       transform="matrix(1.3333333,0,0,-1.3333333,90.641333,10.268)" />
    <path
       id="path22"
       d="m 2.0267244,-2.2955837 h 7.171875 c 0.1054687,0 0.1992187,-0.011719 0.1992187,-0.1289063 0,-0.082031 0.023437,-0.2109375 -0.058594,-0.2578125 -0.046875,-0.023437 -0.1054688,-0.011719 -0.1523438,-0.011719 H 2.0267244 c 0.1523437,-0.1757813 0.3046875,-0.3398438 0.4570312,-0.5273438 0.070312,-0.09375 0.140625,-0.1875 0.2226563,-0.28125 0.058594,-0.082031 0.1289062,-0.1757812 0.1875,-0.2460937 0.035156,-0.046875 0.070312,-0.09375 0.082031,-0.140625 0.035156,-0.140625 -0.1523437,-0.1289063 -0.234375,-0.1289063 -0.046875,0 -0.070312,0 -0.1054687,0.011719 -0.058594,0.046875 -0.1171875,0.1054687 -0.1640625,0.1523437 -0.1054688,0.082031 -0.1992188,0.1640625 -0.3046875,0.2460938 -0.3046875,0.2578125 -0.6328125,0.4921875 -0.984375,0.6914062 -0.1523438,0.09375 -0.31640627,0.1875 -0.48046877,0.2695313 -0.0585938,0.023437 -0.140625,0.070312 -0.140625,0.1523437 0,0.070312 0.0820313,0.1171875 0.140625,0.140625 0.1640625,0.082031 0.32812497,0.1757813 0.48046877,0.2695313 0.3515625,0.1992187 0.6796875,0.4453125 0.984375,0.6914062 0.1054687,0.082031 0.1992187,0.1640625 0.3046875,0.2460938 0.046875,0.046875 0.1054687,0.1171875 0.1640625,0.1523437 0.035156,0.0234375 0.058594,0.0234375 0.1054687,0.0234375 0.082031,0 0.2695313,0.0117188 0.234375,-0.1289062 -0.011719,-0.058594 -0.046875,-0.1054688 -0.082031,-0.140625 -0.058594,-0.082031 -0.1289063,-0.1757813 -0.1875,-0.2578125 -0.082031,-0.09375 -0.1523438,-0.1875 -0.2226563,-0.28125 C 2.3314119,-1.95574 2.1790681,-2.1315212 2.0267244,-2.2955837 Z m 0,0"
       style="fill:#ffffff;fill-opacity:1;fill-rule:nonzero;stroke:none"
       aria-label="Ð"
       transform="matrix(-1.3333333,0,0,-1.3333333,114.13199,13.017347)"
       clip-path="url(#clipPath23)" />
    <path
       id="path24"
       d="M 7.9323984,-2.6952053 H 0.77224219 c -0.046875,0 -0.10546875,-0.011719 -0.15234375,0.011719 -0.0820313,0.046875 -0.0585938,0.1757813 -0.0585938,0.2578125 0,0.1171875 0.09375,0.1289063 0.19921875,0.1289063 H 7.9323984 c -0.1523437,0.1640625 -0.3046875,0.3398437 -0.4570312,0.515625 -0.070312,0.09375 -0.140625,0.1875 -0.2226563,0.28125 -0.058594,0.082031 -0.1289062,0.1757812 -0.1875,0.2578125 -0.035156,0.035156 -0.070312,0.082031 -0.082031,0.140625 -0.035156,0.14062499 0.1523437,0.12890624 0.234375,0.12890624 0.046875,0 0.070312,0 0.1054687,-0.0234375 C 7.3816176,-1.0311425 7.4402111,-1.101455 7.4870861,-1.14833 7.5925549,-1.230361 7.6863049,-1.3123925 7.7917736,-1.3944238 8.0964611,-1.6405175 8.4245861,-1.8866113 8.7761486,-2.08583 c 0.1523438,-0.09375 0.3164063,-0.1875 0.4804688,-0.2695313 0.058594,-0.023437 0.140625,-0.070312 0.140625,-0.140625 0,-0.082031 -0.09375,-0.1289062 -0.1523438,-0.1523437 C 9.0808359,-2.7303616 8.9284922,-2.8241116 8.7761484,-2.9178616 8.4245859,-3.1170803 8.0964609,-3.3514553 7.7917734,-3.6092678 7.6863047,-3.6912991 7.5925547,-3.7733303 7.4870859,-3.8553616 7.4402109,-3.9022366 7.3816172,-3.9608303 7.3230234,-4.0077053 c -0.035156,-0.011719 -0.058594,-0.011719 -0.1054687,-0.011719 -0.082031,0 -0.2695313,-0.011719 -0.234375,0.1289063 0.011719,0.046875 0.046875,0.09375 0.082031,0.140625 0.058594,0.070312 0.1289063,0.1640625 0.1875,0.2460937 0.082031,0.09375 0.1523438,0.1875 0.2226563,0.28125 0.1523437,0.1875 0.3046875,0.3515625 0.4570314,0.527344 z m 0,0"
       style="fill:#ffffff;fill-opacity:1;fill-rule:nonzero;stroke:none"
       aria-label="Ñ"
       transform="matrix(1.3333333,0,0,1.3333333,141.318,19.660013)"
       clip-path="url(#clipPath25)" />
  </g>
</svg>
